<svg width="123" height="28" viewBox="0 0 123 28" fill="none" xmlns="http://www.w3.org/2000/svg">
<path d="M26.4426 9.77887C26.8015 9.77887 26.9212 9.90663 26.9212 10.2506V18.0344H30.9793C31.3283 18.0344 31.4579 18.1622 31.4579 18.5061V19.1941C31.4579 19.5381 31.3283 19.6658 30.9793 19.6658H25.635C25.286 19.6658 25.1464 19.5381 25.1464 19.1941V10.2506C25.1464 9.90663 25.286 9.77887 25.635 9.77887H26.4426Z" fill="#696871"/>
<path fill-rule="evenodd" clip-rule="evenodd" d="M38.9859 9.57245C36.4533 9.57245 34.9976 10.9385 34.9976 13.2088V16.2358C34.9976 18.5061 36.4633 19.8722 38.9859 19.8722C41.5085 19.8722 42.9742 18.5061 42.9742 16.2358V13.2088C42.9742 10.9385 41.5185 9.57245 38.9859 9.57245ZM39.0358 11.2432C40.4915 11.2432 41.2991 11.9312 41.2991 13.2088V16.2555C41.2991 17.5135 40.4915 18.2211 39.0358 18.2211C37.58 18.2211 36.7823 17.543 36.7823 16.2555V13.2088C36.7823 11.941 37.58 11.2432 39.0358 11.2432Z" fill="#696871"/>
<path d="M54.8495 14.2506C55.2383 14.2506 55.3281 14.3784 55.3281 14.7224V16.5897C55.3494 17.4806 54.9609 18.3331 54.2712 18.9091C53.4253 19.573 52.3588 19.9024 51.2799 19.833C48.6975 19.833 47.2916 18.4669 47.2916 16.1966V13.1499C47.2916 10.9091 48.7473 9.5332 51.2799 9.5332C53.2741 9.5332 54.5703 10.3096 55.1187 11.8624C55.1809 11.9807 55.1828 12.121 55.1239 12.241C55.0651 12.3609 54.9523 12.4464 54.8195 12.4718L54.0418 12.7371C53.7028 12.8551 53.5632 12.7863 53.4436 12.4423C53.1038 11.5787 52.2127 11.0525 51.2799 11.1647C49.8142 11.1647 49.0165 11.8624 49.0165 13.1303V16.2556C49.0165 17.543 49.8242 18.2212 51.2799 18.2212C52.7356 18.2212 53.633 17.5627 53.633 16.5995V15.8723H51.4694C51.1104 15.8723 50.9808 15.7347 50.9808 15.3907V14.7224C50.9808 14.3784 51.1104 14.2506 51.4694 14.2506H54.8495Z" fill="#696871"/>
<path fill-rule="evenodd" clip-rule="evenodd" d="M63.4343 9.57245C60.9018 9.57245 59.446 10.9385 59.446 13.2088V16.2358C59.446 18.5061 60.9117 19.8722 63.4343 19.8722C65.957 19.8722 67.4227 18.5061 67.4227 16.2358V13.2088C67.4227 10.9385 65.9669 9.57245 63.4343 9.57245ZM63.4842 11.2432C64.93 11.2432 65.7376 11.9312 65.7376 13.2088V16.2555C65.7376 17.5135 64.9399 18.2211 63.4842 18.2211C62.0284 18.2211 61.2208 17.543 61.2208 16.2555V13.2088C61.2208 11.941 62.0384 11.2432 63.4842 11.2432Z" fill="#696871"/>
<path d="M72.1189 10.0639C72.1189 9.84767 72.1887 9.77887 72.4081 9.77887H72.8667C73.0861 9.77887 73.136 9.84767 73.136 10.0639V19.3808C73.136 19.5971 73.136 19.6658 72.8667 19.6658H72.4081C72.1887 19.6658 72.1189 19.5971 72.1189 19.3808V10.0639Z" fill="#696871"/>
<path fill-rule="evenodd" clip-rule="evenodd" d="M85.3502 12.8649C85.3502 11.1605 83.9485 9.77887 82.2194 9.77887H78.5002C78.2909 9.77887 78.2111 9.84767 78.2111 10.0639V19.3808C78.2111 19.5971 78.2909 19.6658 78.5002 19.6658H78.9689C79.1783 19.6658 79.2281 19.5971 79.2281 19.3808V15.9509H82.2194C83.9485 15.9509 85.3502 14.5692 85.3502 12.8649ZM84.012 13.9066C83.6238 14.5695 82.9062 14.9779 82.1296 14.9779H79.1384V10.6929H82.1296C82.9062 10.6929 83.6238 11.1012 84.012 11.7641C84.4003 12.427 84.4003 13.2437 84.012 13.9066Z" fill="#696871"/>
<path d="M93.1374 9.58233C94.7182 9.41037 96.2262 10.2814 96.8466 11.7248C96.9263 11.8821 96.8466 12.0098 96.687 12.0885L96.2483 12.285C96.0688 12.3538 95.999 12.344 95.8894 12.1573C95.4258 11.0868 94.3129 10.4349 93.1374 10.5455C91.4523 10.5455 90.535 11.2039 90.535 12.3833C90.5148 13.1286 91.0552 13.7745 91.8013 13.8968C92.3376 14.0692 92.8936 14.1749 93.4565 14.2113C94.1378 14.2471 94.8099 14.3829 95.4506 14.6143C96.463 14.93 97.1122 15.9021 97.0061 16.9435C97.0061 18.7813 95.6501 19.8919 93.1574 19.8919C91.4726 20.0819 89.8818 19.087 89.3385 17.5037C89.3029 17.4328 89.3013 17.3499 89.3341 17.2776C89.3669 17.2054 89.4306 17.1513 89.508 17.1302L89.9467 16.973C90.0166 16.9449 90.0953 16.9469 90.1635 16.9787C90.2318 17.0105 90.2834 17.069 90.3057 17.1401C90.7634 18.2794 91.9172 18.9952 93.1574 18.9091C95.0418 18.9091 95.9691 18.2605 95.9691 16.9435C96.0054 16.2286 95.512 15.5927 94.8025 15.4398C94.2866 15.2881 93.7546 15.1958 93.2172 15.1646L92.1403 15.027C91.8033 14.9565 91.4705 14.8679 91.1432 14.7617C90.82 14.6655 90.5187 14.5086 90.2558 14.2998C89.7204 13.8218 89.4282 13.134 89.4582 12.4226C89.528 10.7027 90.8342 9.58233 93.1374 9.58233Z" fill="#696871"/>
<path d="M102.38 16.3047C102.468 17.7474 103.681 18.8731 105.147 18.8731C106.614 18.8731 107.826 17.7474 107.914 16.3047V10.0639C107.914 9.84767 107.984 9.77887 108.203 9.77887H108.662C108.881 9.77887 108.951 9.84767 108.951 10.0639V16.2948C108.951 18.5258 107.615 19.8722 105.152 19.8722C102.689 19.8722 101.353 18.5258 101.353 16.2948V10.0639C101.353 9.84767 101.423 9.77887 101.633 9.77887H102.101C102.311 9.77887 102.38 9.84767 102.38 10.0639V16.3047Z" fill="#696871"/>
<path d="M122.711 9.77887C122.93 9.77887 123 9.84766 123 10.0639V19.3808C123 19.597 122.93 19.6658 122.711 19.6658H122.292C122.083 19.6658 122.013 19.597 122.013 19.3808V13.7101C122.013 12.885 122.069 12.0608 122.182 11.2432H122.123C121.811 11.9909 121.448 12.7166 121.036 13.4152L118.892 17.14C118.838 17.2723 118.707 17.3583 118.563 17.3563H118.284C118.137 17.357 118.004 17.2721 117.945 17.14L115.771 13.3759C115.385 12.6872 115.052 11.9711 114.774 11.2334H114.714C114.816 12.0585 114.87 12.8887 114.874 13.7199V19.3808C114.874 19.597 114.804 19.6658 114.585 19.6658H114.196C113.976 19.6658 113.907 19.597 113.907 19.3808V10.0639C113.907 9.84766 113.976 9.77887 114.196 9.77887H114.555C114.723 9.76343 114.883 9.85396 114.954 10.0049L118.443 16.1179L121.913 10.0639C122.023 9.85749 122.083 9.82801 122.302 9.82801L122.711 9.77887Z" fill="#696871"/>
<path fill-rule="evenodd" clip-rule="evenodd" d="M2.09387 0.914005V20.8747C2.09387 21.1197 1.99513 21.3547 1.81936 21.5279C1.64359 21.7012 1.40519 21.7985 1.15661 21.7985H0.937257C0.419624 21.7985 0 21.3849 0 20.8747V0.914005C0.00546557 0.407628 0.423493 -2.86551e-05 0.937257 1.51074e-09H1.15661C1.67038 -2.86551e-05 2.08841 0.407628 2.09387 0.914005ZM13.5906 13.5672C13.7885 13.3814 14.0551 13.2838 14.3281 13.2973L14.2782 13.317C14.5684 13.2878 14.8569 13.3853 15.0679 13.5838C15.2789 13.7823 15.3911 14.0619 15.375 14.3489V19.7543C15.375 20.3242 14.9063 20.7862 14.3281 20.7862C13.7499 20.7862 13.2811 20.3242 13.2811 19.7543V14.2801C13.2808 14.0107 13.3927 13.753 13.5906 13.5672ZM16.5815 16.4128C16.5815 15.87 17.0279 15.43 17.5786 15.43C17.8671 15.4038 18.1528 15.5027 18.3615 15.7008C18.5702 15.899 18.6811 16.1768 18.6654 16.4619V17.6511C18.6654 18.2183 18.1989 18.6781 17.6234 18.6781C17.048 18.6781 16.5815 18.2183 16.5815 17.6511V16.4128ZM8.70454 24.5897V17.484C8.39274 17.7176 8.00921 17.839 7.61772 17.828C7.2586 17.8192 6.91075 17.7026 6.62064 17.4938V24.5897C6.62064 25.1569 7.08713 25.6167 7.66259 25.6167C8.23804 25.6167 8.70454 25.1569 8.70454 24.5897ZM4.35725 20.1769C3.99847 20.1663 3.65115 20.0499 3.36017 19.8428V26.9681C3.36017 27.538 3.8289 28 4.4071 28C4.98531 28 5.45404 27.538 5.45404 26.9681V19.8919C5.12845 20.0993 4.74428 20.1992 4.35725 20.1769ZM11.0178 15.4005C10.6422 15.398 10.2766 15.2813 9.97083 15.0664V22.2113C9.97083 22.7812 10.4396 23.2433 11.0178 23.2433C11.596 23.2433 12.0647 22.7812 12.0647 22.2113V15.0762C11.7484 15.3084 11.3622 15.4295 10.9679 15.4202L11.0178 15.4005ZM4.46695 19.4201H4.24759C3.72996 19.4201 3.31033 19.0065 3.31033 18.4963V3.29237C3.3158 2.78599 3.73383 2.37833 4.24759 2.37836H4.46695C4.98071 2.37833 5.39874 2.78599 5.4042 3.29237V18.516C5.4042 19.0262 4.98458 19.4398 4.46695 19.4398V19.4201ZM7.53794 17.0811H7.76726C8.27939 17.0811 8.69455 16.6719 8.69455 16.1671V5.6511C8.69458 5.1447 8.281 4.73266 7.76726 4.72727H7.53794C7.29027 4.72726 7.05288 4.8249 6.87869 4.99844C6.70451 5.17198 6.60799 5.407 6.61065 5.6511V16.1671C6.61065 16.6719 7.02581 17.0811 7.53794 17.0811ZM11.0676 14.6732H10.8582C10.3445 14.6732 9.92645 14.2656 9.92098 13.7592V8.09827C9.90443 7.84321 9.99582 7.59278 10.1734 7.40656C10.351 7.22033 10.5989 7.11495 10.8582 7.11547H11.0776C11.5952 7.11547 12.0149 7.52909 12.0149 8.0393V13.7395C12.0175 13.9863 11.9199 14.2238 11.7439 14.3992C11.5678 14.5745 11.3279 14.6732 11.0776 14.6732H11.0676ZM14.1586 12.5602H14.3779H14.3879C14.9016 12.5548 15.3152 12.1428 15.3152 11.6363V10.172C15.3097 9.6656 14.8917 9.25794 14.3779 9.25797H14.1586C13.6448 9.25794 13.2268 9.6656 13.2213 10.172V11.6363C13.2213 12.1466 13.6409 12.5602 14.1586 12.5602Z" fill="#696871"/>
</svg>
