<svg width="118" height="27" viewBox="0 0 118 27" fill="none" xmlns="http://www.w3.org/2000/svg">
<path fill-rule="evenodd" clip-rule="evenodd" d="M70.4153 6.92203C69.8524 7.17196 69.4956 7.7374 69.5116 8.35407V8.37398C69.5079 8.77907 69.6731 9.16734 69.9673 9.44516C70.2615 9.72298 70.6581 9.86515 71.0614 9.83739C71.6769 9.82508 72.2242 9.44198 72.4475 8.86712C72.6709 8.29227 72.5261 7.63919 72.0809 7.21311C71.6358 6.78703 70.9781 6.6721 70.4153 6.92203ZM37.1547 7.60738H34.1743V19.683H37.1547V7.60738ZM42.9863 10.355C40.1649 10.355 38.3369 12.137 38.3369 15.1235C38.3369 18.1598 40.1251 19.902 42.9863 19.902C45.8475 19.902 47.6357 18.1101 47.6357 15.1235C47.6357 12.137 45.8077 10.355 42.9863 10.355ZM44.6454 15.1236C44.6454 13.481 43.9996 12.5153 42.9863 12.5153C41.973 12.5153 41.3372 13.5108 41.3372 15.1236C41.3372 16.7363 41.963 17.7119 42.9863 17.7119C44.0096 17.7119 44.6454 16.796 44.6454 15.1335V15.1236ZM51.6194 20.2704H48.7583V20.2803C48.9272 21.9329 50.5664 23.1175 53.199 23.1175C56.0304 23.1175 57.9478 21.7636 57.9478 19.5835V10.5243H54.9674V12.1868C54.508 11.0865 53.4148 10.388 52.2254 10.4347C49.9405 10.4347 48.5695 12.2366 48.5695 15.0937C48.5695 17.9508 50.01 19.6133 52.1857 19.6133C53.3379 19.676 54.412 19.0294 54.8978 17.9807H54.9575V19.6531C54.9575 20.5491 54.3614 21.1663 53.2288 21.1663C52.5536 21.2573 51.899 20.8929 51.6194 20.2704ZM54.9674 15.1136C54.9674 13.6601 54.3018 12.7443 53.2487 12.7443C52.1956 12.7443 51.5499 13.6502 51.5499 15.1136C51.5499 16.577 52.1857 17.4033 53.2487 17.4033C54.3117 17.4033 54.9674 16.5969 54.9674 15.1235V15.1136ZM63.7198 10.345C60.8983 10.345 59.0704 12.127 59.0704 15.1136V15.1235C59.0704 18.1598 60.8487 19.892 63.7198 19.892C66.5908 19.892 68.3791 18.1001 68.3791 15.1136C68.3791 12.127 66.5412 10.345 63.7198 10.345ZM65.3788 15.1136C65.3788 13.471 64.7331 12.5054 63.7198 12.5054C62.7064 12.5054 62.1203 13.5108 62.1203 15.1335C62.1203 16.7562 62.7462 17.7218 63.7595 17.7218C64.7728 17.7218 65.3788 16.796 65.3788 15.1335V15.1136ZM69.5116 10.5442H72.492V19.683H69.5116V10.5442ZM79.7243 19.8025C81.9894 19.8025 83.3107 18.1001 83.3107 15.1136L83.3505 15.1335C83.3505 12.147 81.9894 10.4347 79.7045 10.3949C78.5055 10.3412 77.4014 11.0457 76.9427 12.1569H76.8831V10.5243H73.9027V22.6098H76.8831V18.1101H76.9427C77.4237 19.2031 78.5346 19.879 79.7243 19.8025ZM80.3304 15.1136C80.3304 13.6601 79.6647 12.7343 78.6216 12.7343C77.5785 12.7343 76.9129 13.6701 76.9029 15.1136C76.893 16.5571 77.5785 17.4829 78.6216 17.4829C79.6647 17.4829 80.3304 16.577 80.3304 15.1335V15.1136ZM92.4704 13.3914C92.4009 11.5098 90.9007 10.3351 88.427 10.3351V10.355C85.9633 10.355 84.3638 11.5198 84.3439 13.3117C84.3439 14.7054 85.2778 15.6512 87.0561 16.0195L88.7747 16.3879C89.49 16.5372 89.7682 16.6367 89.7682 17.1146C89.7682 17.5924 89.3708 17.8811 88.4966 17.8811C87.6223 17.8811 87.0859 17.4829 86.9965 16.806H84.1254C84.2545 18.6676 85.9136 19.8821 88.4469 19.8821C90.9802 19.8821 92.6989 18.6676 92.6989 16.7761C92.6989 15.3923 91.924 14.6557 90.106 14.2674L88.1985 13.8792C87.5329 13.7398 87.2051 13.5905 87.2051 13.1226C87.2051 12.6547 87.5727 12.3361 88.3972 12.3361C89.2218 12.3361 89.7583 12.7443 89.7583 13.3914H92.4704ZM102.643 19.6631H99.7723V17.9608H99.7127C99.3875 19.1384 98.2875 19.9299 97.0701 19.8622C96.1539 19.9144 95.2602 19.5661 94.6199 18.9073C93.9797 18.2486 93.6558 17.3441 93.7321 16.4277V10.5243H96.7125V15.7408C96.7125 16.8259 97.2688 17.4033 98.1927 17.4033C98.631 17.4042 99.0484 17.2154 99.3377 16.8855C99.627 16.5555 99.7601 16.1165 99.7028 15.681V10.5243H102.683L102.643 19.6631ZM106.965 10.5243H104.084L104.034 19.683H107.015V14.2973C106.969 13.9185 107.088 13.5384 107.34 13.253C107.593 12.9676 107.955 12.8041 108.336 12.804C109.151 12.804 109.598 13.3018 109.598 14.2176V19.683H112.429V14.2774C112.38 13.9032 112.495 13.5263 112.745 13.2437C112.994 12.9612 113.354 12.8008 113.73 12.804C114.565 12.804 115.012 13.2619 115.012 14.2575V19.683H117.992V13.461C118.052 12.6414 117.761 11.8349 117.193 11.2425C116.624 10.65 115.832 10.3274 115.012 10.355C113.734 10.3 112.581 11.1193 112.21 12.3461H112.151C111.953 11.1224 110.851 10.2561 109.618 10.355C108.415 10.3328 107.35 11.1265 107.025 12.2863H106.965V10.5243Z" fill="#696871"/>
<path fill-rule="evenodd" clip-rule="evenodd" d="M23.8523 4.94937C24.6645 5.91694 25.3337 6.99651 25.8392 8.15493C26.5756 9.84393 26.9545 11.6676 26.9519 13.5108C26.9464 20.9506 20.9349 26.9835 13.5104 27C11.7829 26.999 10.0721 26.6609 8.47358 26.0045C7.33344 25.5505 6.26314 24.9372 5.29452 24.1827C1.17463 21.0364 -0.774489 15.7979 0.284231 10.7168C1.34295 5.63575 5.2211 1.61643 10.2531 0.38502C15.2852 -0.846393 20.5756 0.92925 23.8523 4.94937ZM17.9909 3.74483C16.5844 3.08892 15.0518 2.74915 13.5005 2.74931L13.5104 2.7294C9.8317 2.72665 6.40803 4.61269 4.43914 7.72663C2.47025 10.8406 2.23067 14.7482 3.80435 18.0802C4.25309 17.6078 4.52962 16.9975 4.58919 16.348C4.95052 13.8467 6.91131 11.8819 9.40746 11.5198C10.8158 11.3918 11.9405 10.2897 12.0997 8.88168C12.4611 6.38036 14.4218 4.41551 16.918 4.05344C17.2874 3.99704 17.648 3.89332 17.9909 3.74483ZM5.28461 20.4794C5.32434 20.4429 5.36408 20.4075 5.40382 20.3721C5.4833 20.3013 5.56277 20.2305 5.64225 20.1508C6.52608 19.2922 7.09341 18.1587 7.25165 16.9353C7.31581 16.2477 7.62221 15.6054 8.11596 15.1235C8.59108 14.6279 9.23059 14.3234 9.91412 14.2674C12.4103 13.9053 14.3711 11.9404 14.7324 9.43911C14.7754 8.71986 15.0834 8.04224 15.5967 7.53768C16.0835 7.05172 16.7292 6.75829 17.4147 6.7114C18.5313 6.55746 19.5726 6.06005 20.3951 5.28782C21.3316 6.06638 22.125 7.00298 22.7397 8.05534C22.7019 8.10646 22.6586 8.15321 22.6105 8.19472C22.1363 8.69466 21.4976 9.00582 20.8123 9.07077C18.3131 9.4266 16.3492 11.3946 15.9941 13.899C15.8497 15.312 14.7323 16.4276 13.3217 16.567C10.8186 16.9262 8.84755 18.8892 8.47361 21.3952C8.42014 21.8818 8.2534 22.3489 7.98681 22.7591C6.96752 22.1527 6.05462 21.3825 5.28461 20.4794ZM10.5201 23.904C11.4891 24.1824 12.4924 24.3232 13.5005 24.3221V24.2723C16.8276 24.2594 19.9613 22.7032 21.9867 20.0581C24.0121 17.4129 24.701 13.977 23.8523 10.7532C23.0981 11.2876 22.225 11.6294 21.309 11.7488C19.9023 11.8926 18.7901 13.0071 18.6466 14.4167C18.2841 16.9212 16.3184 18.8869 13.8184 19.245C12.4116 19.3888 11.2994 20.5033 11.1559 21.9129C11.0671 22.61 10.8516 23.2848 10.5201 23.904Z" fill="#696871"/>
</svg>
