<svg width="117" height="23" viewBox="0 0 117 23" fill="none" xmlns="http://www.w3.org/2000/svg">
<path d="M37.6122 18.7048C37.0209 18.7362 36.436 18.5715 35.9519 18.2373C35.5412 17.9391 35.3069 17.4618 35.3255 16.9614V7.93269C35.3157 7.85523 35.3429 7.77768 35.3992 7.72249C35.4556 7.6673 35.5347 7.64064 35.6138 7.65024H37.2841C37.473 7.65024 37.5625 7.74764 37.5625 7.93269V16.2601C37.5625 16.6302 37.7316 16.8153 38.0795 16.8153C38.227 16.8213 38.3746 16.8048 38.517 16.7666C38.7159 16.7666 38.8252 16.825 38.8352 17.0004L38.9843 18.2178C38.9988 18.2896 38.9809 18.3641 38.9351 18.422C38.8894 18.4798 38.8203 18.5155 38.7457 18.5197C38.3798 18.6381 37.9975 18.7006 37.6122 18.7048Z" fill="#696871"/>
<path fill-rule="evenodd" clip-rule="evenodd" d="M41.0424 17.6627C42.7736 19.0639 45.2766 19.0639 47.0078 17.6627V17.653C48.5052 16.1232 48.5052 13.709 47.0078 12.1793C45.2738 10.7857 42.7764 10.7857 41.0424 12.1793C39.507 13.6977 39.507 16.1443 41.0424 17.6627ZM45.4568 16.3771C44.6499 17.0931 43.4202 17.0931 42.6133 16.3771C41.8844 15.5561 41.8844 14.3346 42.6133 13.5136C43.4202 12.7975 44.6499 12.7975 45.4568 13.5136C46.1857 14.3346 46.1857 15.5561 45.4568 16.3771Z" fill="#696871"/>
<path fill-rule="evenodd" clip-rule="evenodd" d="M57.6065 11.663C57.6065 11.4779 57.517 11.3806 57.3281 11.3806L55.6776 11.3903C55.6002 11.3839 55.5239 11.412 55.47 11.4667C55.416 11.5215 55.39 11.5972 55.3993 11.6727V11.8286C54.7925 11.374 54.0451 11.1368 53.2815 11.1565C52.234 11.1199 51.2158 11.4992 50.4579 12.2084C48.9679 13.7185 48.9679 16.1137 50.4579 17.6237C51.2123 18.3393 52.232 18.7227 53.2815 18.6853C54.0236 18.706 54.7515 18.4832 55.3495 18.0522V18.6658C55.3698 19.1171 55.201 19.5569 54.8823 19.8833C54.5334 20.1952 54.0713 20.3566 53.5997 20.3313C53.2128 20.339 52.83 20.2519 52.4861 20.0781C52.2039 19.9286 51.988 19.6824 51.8796 19.3866C51.8249 19.2551 51.6964 19.1674 51.5515 19.1626H49.8812C49.6128 19.1626 49.6128 19.2502 49.6128 19.445C49.7526 20.2431 50.2243 20.9485 50.9152 21.393C51.7157 21.9013 52.6563 22.1563 53.6096 22.1234C54.6651 22.169 55.699 21.821 56.5029 21.1495C57.2363 20.5202 57.6417 19.6009 57.6065 18.6464V11.663ZM54.8325 16.377C54.4879 16.7569 53.989 16.9674 53.4704 16.9517C52.9463 16.9665 52.4416 16.7567 52.0884 16.377C51.7318 15.9759 51.5435 15.4574 51.5615 14.9258C51.5396 14.389 51.7322 13.8649 52.0984 13.4649C52.4508 13.0841 52.956 12.8741 53.4804 12.8902C53.9942 12.8736 54.4891 13.0804 54.8325 13.4551C55.5124 14.3152 55.5124 15.5169 54.8325 16.377Z" fill="#696871"/>
<path fill-rule="evenodd" clip-rule="evenodd" d="M60.2213 17.6627C61.9554 19.0562 64.4527 19.0562 66.1868 17.6627V17.6529C67.6842 16.1232 67.6842 13.709 66.1868 12.1792C64.4514 10.7895 61.9568 10.7895 60.2213 12.1792C58.7227 13.7122 58.7227 16.1296 60.2213 17.6627ZM63.214 16.9127C62.6829 16.9287 62.1673 16.7358 61.7823 16.3771C61.0661 15.5515 61.0661 14.3391 61.7823 13.5136C62.1673 13.1548 62.6829 12.9619 63.214 12.9779C63.7417 12.9645 64.2532 13.1572 64.6358 13.5136C65.352 14.3391 65.352 15.5515 64.6358 16.3771C64.2532 16.7334 63.7417 16.9261 63.214 16.9127Z" fill="#696871"/>
<path fill-rule="evenodd" clip-rule="evenodd" d="M69.0005 9.72479C69.5441 10.1909 70.3559 10.1909 70.8995 9.72479C71.1403 9.50214 71.2768 9.19209 71.2768 8.8677C71.2768 8.5433 71.1403 8.23325 70.8995 8.0106C70.3512 7.55693 69.5488 7.55693 69.0005 8.0106C68.7597 8.23325 68.6232 8.5433 68.6232 8.8677C68.6232 9.19209 68.7597 9.50214 69.0005 9.72479ZM69.4479 18.2373C69.9334 18.5688 70.5173 18.7332 71.1083 18.7048C71.4969 18.7013 71.8826 18.6388 72.2517 18.5198C72.3263 18.5155 72.3954 18.4799 72.4411 18.422C72.4869 18.3641 72.5048 18.2896 72.4903 18.2178L72.3412 17.0004C72.3312 16.8251 72.2219 16.7666 72.023 16.7666C71.8771 16.8042 71.7264 16.8206 71.5756 16.8153C71.2376 16.8153 71.0685 16.6303 71.0685 16.2602V11.663C71.0685 11.478 70.9791 11.3806 70.7902 11.3806H69.1198C69.0408 11.371 68.9616 11.3976 68.9052 11.4528C68.8489 11.508 68.8217 11.5856 68.8315 11.663V16.9614C68.814 17.4594 69.0437 17.9349 69.4479 18.2373Z" fill="#696871"/>
<path fill-rule="evenodd" clip-rule="evenodd" d="M81.4783 12.1987C80.7148 11.4855 79.6888 11.106 78.6347 11.1468C77.7143 11.1272 76.8262 11.4794 76.1789 12.1208C75.8376 11.4674 75.1257 11.0821 74.3794 11.1468C74.0135 11.1402 73.6495 11.1997 73.3056 11.3221C73.1616 11.3631 73.0663 11.497 73.0769 11.6435V12.7928C73.0769 12.9487 73.1863 13.0266 73.405 13.0266H73.7331C73.8948 13.0033 74.0582 13.0563 74.1738 13.1696C74.2893 13.2828 74.3434 13.4428 74.3197 13.6012V21.5878C74.3052 21.6636 74.3299 21.7415 74.3855 21.796C74.4412 21.8505 74.5207 21.8747 74.5981 21.8605H76.2684C76.4573 21.8605 76.5568 21.7728 76.5568 21.5878V18.0717C77.1606 18.4988 77.8902 18.7211 78.6347 18.7048C79.6908 18.7464 80.7183 18.3628 81.4783 17.6432C82.9369 16.1096 82.9369 13.7323 81.4783 12.1987ZM78.4558 16.9512C77.9376 16.9512 77.4419 16.7438 77.0837 16.377C76.7245 15.9621 76.5366 15.4306 76.5568 14.8869C76.5336 14.3427 76.7219 13.8102 77.0837 13.3967C77.4419 13.03 77.9376 12.8225 78.4558 12.8225C78.9739 12.8225 79.4696 13.03 79.8278 13.3967C80.2041 13.8031 80.4007 14.3389 80.3747 14.8869C80.3975 15.4344 80.2013 15.969 79.8278 16.377C79.4696 16.7438 78.9739 16.9512 78.4558 16.9512Z" fill="#696871"/>
<path d="M87.2648 18.7048C86.3722 18.7407 85.4872 18.5316 84.7096 18.1009C84.0775 17.728 83.6531 17.0936 83.5562 16.377C83.5562 16.1822 83.6258 16.0848 83.8446 16.0848H85.3061C85.4479 16.0902 85.5746 16.173 85.6342 16.2991C85.843 16.825 86.3898 17.088 87.2648 17.088C87.57 17.1017 87.8739 17.0415 88.1497 16.9127C88.3436 16.8269 88.4735 16.6434 88.4877 16.4354C88.4877 16.1822 88.3286 16.0069 88.0105 15.89C87.6331 15.767 87.2429 15.6853 86.8472 15.6465C86.3784 15.5945 85.9135 15.5132 85.4552 15.403C85.0097 15.3042 84.6045 15.0769 84.292 14.7505C83.92 14.3019 83.7548 13.7222 83.8358 13.1498C83.9169 12.5774 84.2369 12.0636 84.7195 11.7312C85.4361 11.284 86.277 11.0661 87.1256 11.1078C87.9472 11.0806 88.7601 11.2797 89.472 11.6825C90.053 12.0048 90.4548 12.5666 90.5657 13.2116C90.5657 13.4064 90.4762 13.5038 90.2972 13.5038H88.8257C88.6989 13.5111 88.5805 13.4415 88.5275 13.3285C88.4291 13.0978 88.244 12.913 88.0105 12.8123C87.747 12.6772 87.4527 12.6102 87.1554 12.6175C86.864 12.6019 86.5732 12.6589 86.3103 12.7831C86.1208 12.8547 85.9948 13.0321 85.9921 13.2311C86.0052 13.5045 86.1988 13.7376 86.4694 13.8057C86.8512 13.9467 87.2481 14.0447 87.6525 14.0979C88.1175 14.1578 88.5789 14.2424 89.0345 14.3511C89.4801 14.4499 89.8853 14.6772 90.1978 15.0037C90.5354 15.367 90.7109 15.8474 90.685 16.338C90.7024 17.0229 90.3513 17.6664 89.7603 18.0328C89.0175 18.4999 88.147 18.7343 87.2648 18.7048Z" fill="#696871"/>
<path d="M101.194 18.2178C101.205 18.2877 101.188 18.3591 101.145 18.4159C101.102 18.4727 101.037 18.5102 100.965 18.5198C100.602 18.6359 100.224 18.6982 99.842 18.7048C99.0734 18.7828 98.3192 18.4614 97.8535 17.8575C97.1511 18.449 96.2431 18.7524 95.3181 18.7048C94.4497 18.744 93.6048 18.4221 92.9916 17.8185C92.3831 17.1865 92.0636 16.339 92.1067 15.4712V11.663C92.1067 11.478 92.1962 11.3806 92.3851 11.3806H94.0555C94.2444 11.3806 94.3338 11.478 94.3338 11.663V15.179C94.3157 15.6171 94.4685 16.0455 94.7614 16.377C95.057 16.6843 95.474 16.8512 95.9047 16.8348C96.3449 16.8537 96.7745 16.6994 97.0978 16.4062C97.4041 16.0971 97.5661 15.6775 97.5452 15.2472V11.663C97.5452 11.478 97.6347 11.3806 97.8236 11.3806H99.5139C99.7028 11.3806 99.7922 11.478 99.7922 11.663V16.2504C99.7922 16.6303 99.9613 16.8153 100.289 16.8153C100.443 16.8211 100.598 16.8047 100.747 16.7666C100.823 16.7457 100.905 16.7601 100.969 16.8056C101.033 16.8512 101.072 16.9229 101.075 17.0004L101.194 18.2178Z" fill="#696871"/>
<path d="M116.993 18.2178C117.011 18.2884 116.995 18.3632 116.951 18.4217C116.907 18.4801 116.838 18.5161 116.764 18.5198C116.395 18.6375 116.009 18.6999 115.621 18.7048C115.029 18.7347 114.445 18.5701 113.96 18.2373C113.535 17.9477 113.285 17.469 113.294 16.9614V14.6726C113.315 14.2358 113.166 13.8076 112.877 13.4746C112.594 13.1663 112.185 12.9984 111.763 13.0168C111.382 13.0027 111.015 13.1607 110.769 13.4454C110.506 13.7717 110.372 14.1796 110.391 14.5947V18.1886C110.391 18.3737 110.301 18.4711 110.113 18.4711H108.432C108.353 18.4807 108.274 18.454 108.218 18.3988C108.161 18.3436 108.134 18.2661 108.144 18.1886V14.6726C108.166 14.2406 108.028 13.8154 107.756 13.4746C107.511 13.1848 107.146 13.017 106.762 13.0168C106.352 13.0006 105.954 13.1565 105.668 13.4454C105.384 13.7613 105.237 14.174 105.261 14.5947V18.1886C105.27 18.2661 105.243 18.3436 105.187 18.3988C105.131 18.454 105.051 18.4807 104.972 18.4711H103.352C103.163 18.4711 103.073 18.3737 103.073 18.1886V13.6012C103.097 13.4428 103.043 13.2827 102.927 13.1695C102.812 13.0563 102.648 13.0033 102.487 13.0266H102.159C101.94 13.0266 101.83 12.9486 101.83 12.7928V11.6435C101.82 11.497 101.915 11.3631 102.059 11.3221C102.403 11.1996 102.767 11.1402 103.133 11.1468C103.85 11.087 104.538 11.4354 104.903 12.0429C105.581 11.4133 106.496 11.0886 107.428 11.1468C108.337 11.1034 109.212 11.4868 109.784 12.1792C110.451 11.4698 111.407 11.0908 112.389 11.1468C113.267 11.1066 114.121 11.428 114.746 12.0331C115.356 12.6639 115.676 13.5123 115.631 14.3804V16.2601C115.631 16.6303 115.8 16.8153 116.118 16.8153C116.272 16.8223 116.426 16.8059 116.575 16.7666C116.781 16.7666 116.89 16.8445 116.903 17.0004L116.993 18.2178Z" fill="#696871"/>
<path fill-rule="evenodd" clip-rule="evenodd" d="M0.407644 10.1144C1.91699 4.17157 7.36469 0 13.6162 0C19.8677 0 25.3154 4.17157 26.8247 10.1144H25.6316C23.6189 10.0854 21.6475 10.6746 19.9942 11.7994C19.8988 11.8671 19.7992 11.9289 19.696 11.9844H19.5568C19.4535 11.9289 19.3539 11.8671 19.2585 11.7994C15.8468 9.55196 11.3856 9.55196 7.97384 11.7994C7.87842 11.8671 7.77881 11.9289 7.67557 11.9844H7.53637C7.43313 11.9289 7.33351 11.8671 7.2381 11.7994C5.5848 10.6746 3.6134 10.0854 1.60074 10.1144H0.407644ZM23.484 16.2212C24.0965 15.7539 24.8556 15.5095 25.6316 15.5297H27.2323V12.4032H25.6316C24.2647 12.387 22.9291 12.8038 21.8237 13.5915C20.5467 14.5137 18.8055 14.5137 17.5285 13.5915C15.207 12.0084 12.1248 12.0084 9.80324 13.5915C8.52629 14.5137 6.78506 14.5137 5.50811 13.5915C4.38899 12.7937 3.03423 12.3764 1.65044 12.4032H0V15.5297H1.60073C2.37675 15.5095 3.13583 15.7539 3.7483 16.2212C6.06582 17.8055 9.1461 17.8055 11.4636 16.2212C12.0769 15.7554 12.8354 15.5111 13.6112 15.5297C14.3875 15.5079 15.1471 15.7525 15.7588 16.2212C18.0803 17.8043 21.1625 17.8043 23.484 16.2212ZM25.6316 21.1202C24.8556 21.1001 24.0965 21.3445 23.484 21.8118C21.1625 23.3949 18.0803 23.3949 15.7588 21.8118C15.1471 21.3431 14.3875 21.0985 13.6112 21.1202C12.8354 21.1017 12.0769 21.346 11.4636 21.8118C9.1461 23.396 6.06582 23.396 3.7483 21.8118C3.13583 21.3445 2.37675 21.1001 1.60073 21.1202H0V17.9938H1.65044C3.03423 17.967 4.38899 18.3843 5.50811 19.182C6.78506 20.1043 8.52629 20.1043 9.80324 19.182C12.1248 17.5989 15.207 17.5989 17.5285 19.182C18.8055 20.1043 20.5467 20.1043 21.8237 19.182C22.9291 18.3944 24.2647 17.9776 25.6316 17.9938H27.2323V21.1202H25.6316Z" fill="#696871"/>
</svg>
