<svg width="100" height="47" viewBox="0 0 100 47" fill="none" xmlns="http://www.w3.org/2000/svg">
<path d="M0 28.2172H2.99431V42.7253H0V28.2172Z" fill="#696871"/>
<path fill-rule="evenodd" clip-rule="evenodd" d="M8.01431 32.8817C6.02299 33.7 4.72698 35.6234 4.73101 37.7545C4.7175 39.1544 5.27503 40.5008 6.27781 41.4899C7.28059 42.4789 8.64416 43.0273 10.0609 43.0113C12.2175 43.0113 14.1616 41.7271 14.986 39.7578C15.8104 37.7886 15.3525 35.5225 13.8261 34.017C12.2997 32.5115 10.0056 32.0634 8.01431 32.8817ZM10.022 35.5259C11.2928 35.5043 12.3436 36.499 12.3765 37.7545C12.4102 38.3763 12.1791 38.9837 11.7393 39.4296C11.2994 39.8755 10.6908 40.1192 10.0609 40.1018C8.78991 40.1014 7.75682 39.0888 7.74614 37.8329C7.73547 36.577 8.7512 35.5474 10.022 35.5259Z" fill="#696871"/>
<path fill-rule="evenodd" clip-rule="evenodd" d="M27.4279 42.2321V32.7836L24.4835 32.8132V33.7995C23.7665 32.9354 22.6787 32.4565 21.5491 32.5075C18.7267 32.5075 16.4388 34.7683 16.4388 37.5572C16.4388 40.3461 18.7267 42.6069 21.5491 42.6069C22.6796 42.6627 23.7695 42.1828 24.4835 41.3149V42.2321C24.5415 42.8417 24.3098 43.4433 23.8563 43.8604C23.4028 44.2776 22.779 44.4631 22.1679 44.3625C21.2303 44.4391 20.3403 43.9427 19.9221 43.1099L17.347 44.5794C18.3536 46.1984 20.1904 47.1269 22.108 46.9859C24.7829 46.9859 27.4279 45.5756 27.4279 42.2321ZM23.0513 35.2648C23.9574 35.6686 24.5242 36.5759 24.4835 37.5572C24.502 38.1922 24.2479 38.8053 23.7839 39.245C23.3199 39.6846 22.6894 39.9099 22.0481 39.8651C21.0542 39.8642 20.1605 39.2667 19.7902 38.3552C19.4198 37.4438 19.6471 36.4015 20.3645 35.7217C21.0818 35.0419 22.1453 34.8611 23.0513 35.2648Z" fill="#696871"/>
<path fill-rule="evenodd" clip-rule="evenodd" d="M32.4379 32.8817C30.4466 33.7 29.1506 35.6234 29.1546 37.7545C29.1411 39.1544 29.6986 40.5008 30.7014 41.4899C31.7042 42.4789 33.0677 43.0273 34.4845 43.0113C36.6411 43.0113 38.5852 41.7271 39.4096 39.7578C40.234 37.7886 39.7761 35.5225 38.2497 34.017C36.7233 32.5115 34.4292 32.0634 32.4379 32.8817ZM34.4456 35.5259C35.7164 35.5043 36.7672 36.499 36.8001 37.7545H36.7801C36.8135 38.3728 36.5851 38.977 36.1497 39.4222C35.7142 39.8675 35.111 40.1137 34.4845 40.1018C33.2135 40.1014 32.1804 39.0888 32.1697 37.8329C32.1591 36.577 33.1748 35.5474 34.4456 35.5259Z" fill="#696871"/>
<path fill-rule="evenodd" clip-rule="evenodd" d="M43.0183 28.3257C42.015 28.3257 41.2017 29.1293 41.2017 30.1207C41.2072 31.1098 42.0173 31.9103 43.0183 31.9157C44.0215 31.9157 44.8348 31.1121 44.8348 30.1207C44.8348 29.1293 44.0215 28.3257 43.0183 28.3257ZM44.5054 32.7836H41.5111V42.7253H44.5054V32.7836Z" fill="#696871"/>
<path fill-rule="evenodd" clip-rule="evenodd" d="M56.2671 41.3699C57.1684 40.3831 57.634 39.0817 57.5606 37.7544C57.6312 36.4288 57.1644 35.13 56.2634 34.1453C55.3625 33.1606 54.1016 32.5712 52.7598 32.5075C51.6291 32.4538 50.5326 32.8981 49.7654 33.7206V32.7836H46.7711V46.7295H49.7654V41.7981C50.5326 42.6206 51.6291 43.0649 52.7598 43.0113C54.1034 42.9476 55.3659 42.3568 56.2671 41.3699ZM52.1514 35.4474C53.4586 35.4365 54.5332 36.4631 54.5663 37.7544H54.5464C54.5938 38.4077 54.3532 39.0493 53.8865 39.5143C53.4198 39.9792 52.7724 40.2222 52.111 40.1807C50.8042 40.148 49.7652 39.086 49.7763 37.7944C49.7873 36.5027 50.8443 35.4583 52.1514 35.4474Z" fill="#696871"/>
<path d="M66.8829 39.7467C66.8829 42.0349 64.8867 43.0113 62.6909 43.0113C60.8963 43.1683 59.1854 42.2312 58.3691 40.6442L60.9841 39.1747C61.2029 39.9139 61.9134 40.4025 62.6909 40.3483C63.4195 40.3483 63.7788 40.1215 63.7788 39.727C63.7788 38.6322 58.7883 39.2141 58.7883 35.7819C58.7883 33.6121 60.6448 32.5173 62.7807 32.5173C64.3858 32.4691 65.8911 33.2846 66.7132 34.6477L64.0882 36.0087C63.8513 35.4766 63.3192 35.1325 62.7308 35.131C62.2118 35.131 61.8924 35.3282 61.8924 35.6931C61.9323 36.8273 66.8829 36.0679 66.8829 39.7467Z" fill="#696871"/>
<path d="M77.902 32.7836V42.7252H74.9077V41.7982C74.2011 42.6337 73.1326 43.0847 72.0331 43.0113C70.0369 43.0113 68.2703 41.5812 68.2703 38.8886V32.7836H71.2646V38.4547C71.2113 38.9441 71.3836 39.4313 71.7339 39.7812C72.0842 40.1312 72.5753 40.3069 73.0712 40.2596C74.1691 40.2596 74.9376 39.6284 74.9376 38.218V32.7836H77.902Z" fill="#696871"/>
<path d="M95.2091 36.6301V42.7253H92.2148V36.8866C92.2148 35.9003 91.7257 35.2493 90.7675 35.2493C89.8094 35.2493 89.1905 35.9496 89.1905 37.1233V42.7253H86.1962V36.8866C86.1962 35.9003 85.7171 35.2493 84.749 35.2493C83.7808 35.2493 83.1819 35.9496 83.1819 37.1233V42.7253H80.1876V32.7837H83.1819V33.7009C83.8178 32.8778 84.832 32.4287 85.8768 32.5075C86.9273 32.4571 87.9276 32.9551 88.5118 33.8193C89.1908 32.9164 90.2913 32.4211 91.4263 32.5075C93.702 32.5075 95.2091 34.1447 95.2091 36.6301Z" fill="#696871"/>
<path d="M97.7642 32.7245C98.999 32.7245 100 31.7354 100 30.5152C100 29.2951 98.999 28.306 97.7642 28.306C96.5295 28.306 95.5285 29.2951 95.5285 30.5152C95.5285 31.7354 96.5295 32.7245 97.7642 32.7245Z" fill="#696871"/>
<path d="M33.8856 20.692C39.6681 20.692 44.3557 16.0599 44.3557 10.346C44.3557 4.63206 39.6681 0 33.8856 0C28.1031 0 23.4155 4.63206 23.4155 10.346C23.4155 16.0599 28.1031 20.692 33.8856 20.692Z" fill="#696871"/>
<path d="M57.2911 20.692C63.0736 20.692 67.7612 16.0599 67.7612 10.346C67.7612 4.63206 63.0736 0 57.2911 0C51.5087 0 46.821 4.63206 46.821 10.346C46.821 16.0599 51.5087 20.692 57.2911 20.692Z" fill="#696871"/>
<rect x="0.0200005" width="20.9302" height="20.6821" fill="#696871"/>
</svg>
