<svg width="126" height="29" viewBox="0 0 126 29" fill="none" xmlns="http://www.w3.org/2000/svg">
<path fill-rule="evenodd" clip-rule="evenodd" d="M74.7659 8.13499C74.1594 8.40598 73.7806 9.01379 73.809 9.67049L73.8289 9.68031C73.8341 10.0952 74.0074 10.4907 74.3101 10.7784C74.6128 11.0662 75.0196 11.2223 75.4397 11.2117C76.1055 11.2111 76.704 10.811 76.9518 10.2009C77.1996 9.59087 77.0468 8.89334 76.5659 8.4388C76.085 7.98426 75.3725 7.864 74.7659 8.13499ZM38.9777 8.86548H35.7859V21.6275H38.9777V8.86548ZM45.222 11.7713C42.2391 11.7713 40.2504 13.666 40.2504 16.827C40.2504 20.0568 42.1695 21.9024 45.222 21.9024C48.2746 21.9024 50.1937 19.9881 50.1937 16.827C50.1937 13.666 48.205 11.7713 45.222 11.7713ZM47.0317 16.827C47.0317 15.0894 46.3456 14.0685 45.2519 14.0685C44.1581 14.0685 43.482 15.0502 43.482 16.827C43.482 18.6039 44.1581 19.5758 45.2519 19.5758C46.3456 19.5758 47.0516 18.6039 47.0516 16.8368L47.0317 16.827ZM54.5488 22.2852H51.4664L51.4863 22.295C51.6653 24.0522 53.4352 25.299 56.1994 25.3088C59.2421 25.3088 61.3103 23.8657 61.3103 21.5587V11.9971H58.1483V13.5803C57.6084 12.5132 56.4748 11.8541 55.2548 11.9185C52.7591 11.9185 51.2775 13.8034 51.2775 16.827C51.2775 19.8506 52.8287 21.6078 55.1653 21.6078C56.416 21.6983 57.5947 21.0244 58.1384 19.9104V21.6569C58.1384 22.6189 57.502 23.2669 56.279 23.2669C55.5445 23.3598 54.8372 22.9585 54.5488 22.2852ZM58.1483 16.827C58.1483 15.2858 57.4324 14.3139 56.2989 14.3139C55.1654 14.3139 54.4693 15.2956 54.4693 16.827C54.4693 18.3585 55.1554 19.2616 56.2989 19.2616C57.4424 19.2616 58.1483 18.4272 58.1483 16.827ZM67.5447 11.7713C64.5618 11.7713 62.5731 13.666 62.5731 16.827H62.593C62.593 20.0568 64.5021 21.9024 67.5447 21.9024C70.5874 21.9024 72.5164 19.9881 72.5164 16.827C72.5164 13.666 70.5277 11.7713 67.5447 11.7713ZM69.3544 16.827C69.3544 15.0894 68.6584 14.0685 67.5746 14.0685C66.4907 14.0685 65.8047 15.0502 65.8047 16.827C65.8047 18.6039 66.4808 19.5758 67.5746 19.5758C68.6683 19.5758 69.3743 18.6039 69.3743 16.8368L69.3544 16.827ZM73.809 11.9873H77.0406V21.6668H73.8587L73.809 11.9873ZM84.7963 21.8042C87.2324 21.8042 88.6643 19.9783 88.6643 16.827L88.7239 16.8368C88.7239 13.6758 87.2821 11.8597 84.7764 11.8793C83.4834 11.8186 82.2905 12.5645 81.7935 13.7445H81.7338V12.0167H78.5619V24.7787H81.7537V20.0077H81.8133C82.3279 21.1647 83.5189 21.882 84.7963 21.8042ZM85.4128 16.827C85.4128 15.2956 84.687 14.3041 83.5634 14.3041C82.4398 14.3041 81.7338 15.2858 81.7239 16.827C81.7139 18.3683 82.4398 19.3402 83.5634 19.3402C84.687 19.3402 85.4725 18.4272 85.4725 16.8368L85.4128 16.827ZM98.4684 15.0109C98.4485 13.0082 96.7879 11.7615 94.1132 11.7615L94.1729 11.7713C91.4782 11.7713 89.8078 12.9984 89.7481 14.9225C89.7481 16.4049 90.7524 17.3964 92.6714 17.7989L94.5209 18.1817C95.2865 18.3388 95.5848 18.4272 95.5848 18.9475C95.5848 19.4677 95.1473 19.7623 94.2126 19.7623C93.278 19.7623 92.7013 19.3401 92.6118 18.6235H89.5194C89.6487 20.5967 91.4285 21.8925 94.1629 21.8925C96.8973 21.8925 98.7368 20.5574 98.7368 18.594C98.7368 17.1313 97.9414 16.346 95.9527 15.9337L93.9044 15.5214C93.1686 15.3741 92.8007 15.217 92.8007 14.7164C92.8007 14.2157 93.2183 13.8819 94.0933 13.8819C94.9683 13.8819 95.555 14.3139 95.555 15.0109H98.4684ZM109.426 21.6569H106.333V19.8408H106.274C105.917 21.0886 104.731 21.9249 103.42 21.8532C102.448 21.8845 101.509 21.5045 100.838 20.8089C100.168 20.1133 99.8302 19.1681 99.9101 18.2112V11.9971H103.102V17.5338C103.102 18.6726 103.708 19.291 104.703 19.291C105.175 19.2875 105.622 19.0823 105.929 18.7283C106.236 18.3744 106.373 17.9064 106.304 17.4455V11.9971H109.486L109.426 21.6569ZM114.069 11.9873H110.967L110.987 21.6668H114.179V15.9533C114.127 15.5515 114.254 15.1472 114.526 14.8443C114.799 14.5415 115.19 14.3696 115.601 14.3728C116.476 14.3728 116.963 14.8931 116.963 15.8748V21.6668H120.006V15.9337C119.95 15.5364 120.074 15.1351 120.343 14.8351C120.613 14.5351 121.001 14.3662 121.408 14.3728C122.312 14.3728 122.78 14.9225 122.78 15.9042V21.6668H125.991V15.0992C126.057 14.2294 125.744 13.3732 125.131 12.7453C124.518 12.1174 123.662 11.7774 122.78 11.8106C121.429 11.7482 120.205 12.5901 119.797 13.8623H119.657C119.421 12.587 118.241 11.6983 116.933 11.8106C115.64 11.7846 114.492 12.6237 114.139 13.8525H114.069V11.9873Z" fill="#696871"/>
<path fill-rule="evenodd" clip-rule="evenodd" d="M29.4719 9.69996C29.4721 5.70094 26.9863 2.11175 23.2117 0.661062C19.4371 -0.789626 15.1476 0.195616 12.4092 3.14226H0V29H26.2006V16.9154C28.2804 15.0788 29.47 12.4549 29.4719 9.69996ZM24.4307 9.69996C24.4347 11.6147 23.2695 13.343 21.479 14.0785C19.6884 14.814 17.6254 14.4116 16.2526 13.0591C14.8798 11.7066 14.468 9.67063 15.2092 7.90129C15.9504 6.13195 17.6986 4.97803 19.638 4.97803C22.281 4.97802 24.4252 7.09052 24.4307 9.69996ZM5.04125 24.0228H21.1593V19.2813C20.6564 19.3636 20.1477 19.4062 19.638 19.4089C14.2092 19.4035 9.80957 15.0598 9.80409 9.69997C9.80846 9.16991 9.85835 8.64118 9.95324 8.11945H5.04125V24.0228Z" fill="#696871"/>
</svg>
